#!OML:ASF F:\VICON\USERDATA\INSTALL\rory3\rory3.ASF
:FULLY-SPECIFIED
:DEGREES
386
root -9.22319 16.1165 13.5341 15.6287 10.5848 6.47225
lowerback 27.3536 0.54268 -0.578124
upperback 5.88808 0.854823 2.46717
thorax -8.61288 0.463032 2.79221
lowerneck -16.6635 -5.92864 -5.33219
upperneck 6.64412 -7.18062 3.59029
head 4.99598 -3.42816 1.31279
rclavicle -1.51076e-014 -1.59028e-015
rhumerus -20.0155 -30.3096 -57.1701
rradius 73.9632
rwrist 29.1013
rhand -34.3844 -11.9669
rfingers 7.12502
rthumb -7.55058 -41.8122
lclavicle -1.51076e-014 -1.59028e-015
lhumerus -38.2242 24.8573 57.3953
lradius 65.8017
lwrist -7.3296
lhand -30.8338 43.5155
lfingers 7.12502
lthumb -4.1226 73.4554
rfemur -55.6563 -5.65507 20.3797
rtibia 73.9506
rfoot -15.3645 5.93302
rtoes 19.9422
lfemur -48.0975 -2.99355 -16.1622
ltibia 86.422
lfoot 1.1611 -17.6638
ltoes -27.3487
387
root -9.20807 16.1329 13.578 15.2663 10.3751 6.21524
lowerback 27.3896 0.412918 -0.274902
upperback 5.92462 0.774584 2.49787
thorax -8.58253 0.418116 2.67819
lowerneck -17.0703 -5.85495 -5.30058
upperneck 7.05115 -7.0654 3.49707
head 5.17872 -3.37109 1.27485
rclavicle -9.54166e-015 4.45278e-014
rhumerus -20.201 -30.4551 -57.3483
rradius 73.8594
rwrist 28.7653
rhand -34.916 -11.264
rfingers 7.12502
rthumb -8.06372 -41.0902
lclavicle -9.54166e-015 4.45278e-014
lhumerus -38.1847 24.6824 57.4523
lradius 65.953
lwrist -7.48443
lhand -30.8697 43.007
lfingers 7.12502
lthumb -4.15728 72.9462
rfemur -54.9717 -5.56924 20.5919
rtibia 73.7578
rfoot -15.5136 5.98564
rtoes 20.1381
lfemur -48.9194 -2.99997 -16.2128
ltibia 86.4536
lfoot 1.64654 -17.0107
ltoes -22.5284
388
root -9.19709 16.1481 13.6206 15.1284 9.94924 6.04317
lowerback 27.3657 0.425488 -0.218623
upperback 5.78076 0.803522 2.48289
thorax -8.73326 0.430868 2.62037
lowerneck -17.1504 -5.77476 -5.27736
upperneck 7.35156 -6.96445 3.48754
head 5.28098 -3.31961 1.27268
rclavicle 2.46493e-014 1.11319e-014
rhumerus -20.7375 -30.5013 -57.3013
rradius 73.8418
rwrist 28.7486
rhand -35.33 -11.0406
rfingers 7.12502
rthumb -8.46324 -40.851
lclavicle 2.46493e-014 1.11319e-014
lhumerus -38.2288 24.4447 57.4029
lradius 65.9298
lwrist -7.76081
lhand -30.5748 42.6727
lfingers 7.12502
lthumb -3.87252 72.6172
rfemur -54.591 -5.27597 20.6836
rtibia 73.5727
rfoot -15.6029 5.99273
rtoes 19.2839
lfemur -49.9593 -2.89435 -16.2725
ltibia 86.356
lfoot 0.769254 -16.6411
ltoes -23.5591
389
root -9.19786 16.1436 13.6517 15.0964 9.38482 5.86083
lowerback 27.2989 0.533086 -0.446703
upperback 5.57936 0.883262 2.54554
thorax -8.93476 0.475315 2.79727
lowerneck -16.995 -5.6889 -5.40344
upperneck 7.54744 -6.83808 3.52245
head 5.3187 -3.26022 1.31736
rclavicle 2.38542e-014 4.45278e-014
rhumerus -20.9364 -30.6088 -57.3019
rradius 73.6368
rwrist 28.9369
rhand -35.3088 -11.0819
rfingers 7.12502
rthumb -8.44279 -40.8931
lclavicle 2.38542e-014 4.45278e-014
lhumerus -38.3115 24.4149 57.5017
lradius 65.9275
lwrist -8.09032
lhand -30.1814 43.5958
lfingers 7.12502
lthumb -3.49262 73.547
rfemur -54.5188 -4.65229 20.7897
rtibia 73.4647
rfoot -15.4932 5.912
rtoes 19.7612
lfemur -51.3659 -2.58944 -16.2016
ltibia 86.2494
lfoot 0.557103 -16.327
ltoes -22.6614
390
root -9.19531 16.1448 13.6985 14.6579 9.16872 5.64631
lowerback 27.3292 0.458782 -0.445558
upperback 5.67814 0.798169 2.65489
thorax -8.83552 0.434672 2.94765
lowerneck -16.9832 -5.57981 -5.39726
upperneck 7.49311 -6.68464 3.45841
head 5.29049 -3.19 1.31296
rclavicle -1.27222e-014 -7.95139e-015
rhumerus -20.7228 -30.8148 -57.5469
rradius 73.4105
rwrist 29.2796
rhand -35.2121 -11.0428
rfingers 7.12502
rthumb -8.34951 -40.8578
lclavicle -1.27222e-014 -7.95139e-015
lhumerus -38.0793 24.5338 57.7144
lradius 65.7183
lwrist -8.00793
lhand -30.1168 44.2219
lfingers 7.12502
lthumb -3.43025 74.1741
rfemur -53.8195 -4.38381 20.9849
rtibia 73.3712
rfoot -15.6684 5.76803
rtoes 19.8744
lfemur -52.1346 -2.64176 -16.0535
ltibia 85.9973
lfoot -0.122007 -15.8427
ltoes -22.4887
391
root -9.18376 16.1606 13.7583 14.1215 9.21395 5.47169
lowerback 27.2827 0.24294 -0.156148
upperback 5.88192 0.600873 2.67306
thorax -8.56924 0.332462 2.86443
lowerneck -17.2842 -5.46544 -5.06551
upperneck 7.65194 -6.55908 3.17798
head 5.36202 -3.13525 1.1773
rclavicle 4.53229e-014 -1.11319e-014
rhumerus -20.9953 -31.11 -57.7119
rradius 73.5567
rwrist 29.7572
rhand -35.4609 -10.8153
rfingers 7.12502
rthumb -8.58958 -40.6206
lclavicle 4.53229e-014 -1.11319e-014
lhumerus -37.7425 24.4789 57.842
lradius 65.4783
lwrist -7.8163
lhand -30.2883 43.6238
lfingers 7.12502
lthumb -3.59585 73.5732
rfemur -52.833 -4.45689 21.1418
rtibia 73.2493
rfoot -16.1139 5.68221
rtoes 19.3208
lfemur -52.4933 -2.93561 -15.9496
ltibia 85.536
lfoot -0.682942 -15.3913
ltoes -21.709
392
root -9.1711 16.1668 13.805 13.7999 9.0447 5.41618
lowerback 27.2783 0.100532 -0.0657041
upperback 5.89062 0.437775 2.62448
thorax -8.54773 0.252826 2.81261
lowerneck -17.4472 -5.34616 -4.79775
upperneck 7.87505 -6.43174 2.97775
head 5.43788 -3.07718 1.07931
rclavicle 8.74653e-015 -9.54166e-015
rhumerus -21.7039 -31.1433 -57.7166
rradius 74.0015
rwrist 29.8605
rhand -35.4476 -10.7213
rfingers 7.12502
rthumb -8.57671 -40.5271
lclavicle 8.74653e-015 -9.54166e-015
lhumerus -37.7855 24.3941 57.7885
lradius 65.4851
lwrist -7.81369
lhand -30.5118 42.0458
lfingers 7.12502
lthumb -3.81174 71.9914
rfemur -52.2152 -4.33448 21.1323
rtibia 73.2025
rfoot -16.4398 5.52845
rtoes 17.9341
lfemur -53.0835 -3.13808 -16.0071
ltibia 85.049
lfoot -1.21039 -14.9214
ltoes -22.1926
393
root -9.15999 16.1612 13.8409 13.5578 8.74656 5.19063
lowerback 27.3413 0.0106909 0.0828342
upperback 5.78136 0.364836 2.62434
thorax -8.69798 0.216126 2.75361
lowerneck -17.2363 -5.23054 -4.71612
upperneck 7.95125 -6.30409 2.95378
head 5.42049 -3.01593 1.07587
rclavicle 8.74653e-015 -4.77083e-015
rhumerus -22.4214 -30.9542 -57.636
rradius 74.3822
rwrist 29.5777
rhand -35.2356 -10.7049
rfingers 7.12502
rthumb -8.37211 -40.519
lclavicle 8.74653e-015 -4.77083e-015
lhumerus -37.9507 24.1982 57.7345
lradius 65.496
lwrist -7.92348
lhand -30.3003 41.9619
lfingers 7.12502
lthumb -3.60743 71.9111
rfemur -51.8238 -4.02633 21.3032
rtibia 73.1861
rfoot -16.6356 5.39157
rtoes 16.9461
lfemur -53.9462 -3.12313 -15.8401
ltibia 84.622
lfoot -1.98234 -14.3984
ltoes -23.8937
394
root -9.14584 16.16 13.878 13.247 8.44997 5.0919
lowerback 27.4623 -0.0662569 0.148581
upperback 5.71378 0.286468 2.62466
thorax -8.8308 0.17848 2.74541
lowerneck -17.0819 -5.09276 -4.71076
upperneck 8.06358 -6.12676 2.92793
head 5.42403 -2.93232 1.087
rclavicle 4.13472e-014 -1.27222e-014
rhumerus -22.803 -30.9235 -57.5167
rradius 74.2022
rwrist 29.5805
rhand -35.451 -10.116
rfingers 7.12502
rthumb -8.58006 -39.9217
lclavicle 4.13472e-014 -1.27222e-014
lhumerus -38.1184 24.0831 57.7567
lradius 65.5228
lwrist -8.09373
lhand -30.2884 42.335
lfingers 7.12502
lthumb -3.59596 72.2844
rfemur -51.3274 -3.84091 21.3101
rtibia 73.1714
rfoot -16.7592 5.44059
rtoes 16.541
lfemur -54.6535 -3.21385 -15.8209
ltibia 84.0733
lfoot -2.63393 -13.805
ltoes -24.1563
395
root -9.13915 16.1639 13.9255 12.9967 7.91973 5.13255
lowerback 27.3764 0.0440637 -0.161946
upperback 5.76156 0.33802 2.64132
thorax -8.73761 0.207777 2.92463
lowerneck -17.0738 -4.99769 -4.71694
upperneck 8.17777 -5.98723 2.82456
head 5.45055 -2.87199 1.0685
rclavicle -1.98785e-014 -2.8625e-014
rhumerus -23.0248 -31.0888 -57.3886
rradius 74.1148
rwrist 29.4904
rhand -35.6789 -9.83971
rfingers 7.12502
rthumb -8.79995 -39.6362
lclavicle -1.98785e-014 -2.8625e-014
lhumerus -38.2189 23.7837 58.0087
lradius 65.805
lwrist -8.04817
lhand -30.4434 42.9937
lfingers 7.12502
lthumb -3.74565 72.9405
rfemur -50.8739 -3.41774 21.1253
rtibia 73.1556
rfoot -16.8941 5.51691
rtoes 16.1755
lfemur -55.2639 -3.10084 -15.9653
ltibia 83.4035
lfoot -3.24306 -13.262
ltoes -24.6282
396
root -9.13603 16.1571 13.9674 12.9149 6.92538 5.10079
lowerback 27.1478 0.362499 -0.652699
upperback 5.77093 0.596881 2.59795
thorax -8.62942 0.33652 3.0701
lowerneck -17.0619 -4.95032 -4.74828
upperneck 8.28994 -5.92675 2.88417
head 5.48495 -2.83889 1.09737
rclavicle -3.81667e-014 -1.59028e-015
rhumerus -23.426 -31.1965 -57.3523
rradius 74.223
rwrist 29.2312
rhand -35.7405 -10.1039
rfingers 7.12502
rthumb -8.85941 -39.8979
lclavicle -3.81667e-014 -1.59028e-015
lhumerus -38.0576 23.5227 58.2592
lradius 65.7692
lwrist -7.79295
lhand -30.2282 43.5571
lfingers 7.12502
lthumb -3.53785 73.5075
rfemur -50.76 -2.45759 20.9264
rtibia 73.1746
rfoot -16.8859 5.68114
rtoes 17.1071
lfemur -56.096 -2.47104 -16.03
ltibia 82.746
lfoot -3.71529 -12.9032
ltoes -25.6056
397
root -9.12009 16.147 14.0065 12.8749 6.25632 4.89827
lowerback 26.9643 0.445179 -0.680249
upperback 5.72734 0.693598 2.62783
thorax -8.59267 0.381224 3.08588
lowerneck -17.1457 -4.87166 -4.79239
upperneck 8.43296 -5.79855 2.79859
head 5.53754 -2.78328 1.08716
rclavicle 0 1.27222e-014
rhumerus -23.8161 -31.0865 -57.2214
rradius 74.2295
rwrist 29.1026
rhand -35.9872 -10.2098
rfingers 7.12502
rthumb -9.09748 -39.9936
lclavicle 0 1.27222e-014
lhumerus -37.7086 23.7288 58.4894
lradius 65.3325
lwrist -8.16038
lhand -29.4183 43.9321
lfingers 7.12502
lthumb -2.75565 73.894
rfemur -50.676 -1.86507 20.9298
rtibia 73.1861
rfoot -16.9018 6.05305
rtoes 18.4012
lfemur -56.9572 -2.09504 -15.8815
ltibia 82.0576
lfoot -4.29613 -12.5792
ltoes -27.0191
398
root -9.09843 16.1438 14.0449 12.7424 5.97376 4.8837
lowerback 26.8899 0.394371 -0.579312
upperback 5.74764 0.657038 2.65946
thorax -8.52975 0.360738 3.07413
lowerneck -17.3999 -4.78761 -4.84808
upperneck 8.65476 -5.64891 2.68359
head 5.64118 -2.7185 1.06763
rclavicle -1.90833e-014 -2.22639e-014
rhumerus -24.2408 -31.1926 -56.9828
rradius 74.344
rwrist 29.0736
rhand -36.1174 -9.83563
rfingers 7.12502
rthumb -9.22309 -39.6139
lclavicle -1.90833e-014 -2.22639e-014
lhumerus -37.3403 23.7773 58.9347
lradius 65.0998
lwrist -8.38563
lhand -29.4065 43.5226
lfingers 7.12502
lthumb -2.74427 73.4847
rfemur -50.3499 -1.74584 20.8062
rtibia 73.1597
rfoot -17.1065 6.25975
rtoes 18.5369
lfemur -57.668 -2.16858 -15.8845
ltibia 81.2319
lfoot -4.77737 -12.1783
ltoes -27.5471
